<svg id="圖層_1" data-name="圖層 1" xmlns="http://www.w3.org/2000/svg" viewBox="0 0 32.17 26.35"><defs><style>.cls-1{fill:none;stroke:#231815;stroke-miterlimit:10;stroke-width:1.5px;}.cls-2,.cls-3{fill:#231815;}.cls-3{font-size:8.53px;font-family:ArialRoundedMTBold, Arial Rounded MT Bold;}</style></defs><path class="cls-1" d="M22.09,27.09a12.43,12.43,0,1,1,3.08-16.4" transform="translate(-1.4 -4.01)"/><rect class="cls-2" x="20.66" y="9.09" width="2.83" height="1.23" rx="0.26" transform="translate(-2.32 12.95) rotate(-41.26)"/><rect class="cls-2" x="5.91" y="9.2" width="2.83" height="1.23" rx="0.26" transform="translate(4.78 18) rotate(-137.95)"/><rect class="cls-2" x="2.88" y="16.46" width="2.83" height="1.23" rx="0.26" transform="translate(7.18 30.13) rotate(-180)"/><rect class="cls-2" x="5.91" y="23.83" width="2.83" height="1.23" rx="0.26" transform="translate(28.38 32.55) rotate(135)"/><rect class="cls-2" x="13.26" y="26.91" width="2.83" height="1.23" rx="0.26" transform="translate(40.81 8.84) rotate(90)"/><rect class="cls-2" x="13.26" y="6.01" width="2.83" height="1.23" rx="0.26" transform="translate(6.65 17.29) rotate(-90)"/><text class="cls-3" transform="translate(7.02 17.13)">25min</text><path class="cls-2" d="M25.92,10.63a.85.85,0,0,1-.52.67.69.69,0,0,1-.4,0l-.15,0-.1,0-.08,0a.58.58,0,0,1-.11-.1c-.1-.13,0-.2-.11-.34s-.13-.15-.13-.26a.27.27,0,0,1,0-.13.35.35,0,0,1,.08-.15.93.93,0,0,1,.2-.2.73.73,0,0,1,.23-.13s.44-.18.68,0l.17.2a1.39,1.39,0,0,1,.15.22l0,.11A.79.79,0,0,1,25.92,10.63Z" transform="translate(-1.4 -4.01)"/><path class="cls-2" d="M22.82,27.11a.9.9,0,0,1-.2.49,1.64,1.64,0,0,1-.31.28c-.25.17-.38.26-.52.25-.34,0-.57-.6-.58-1a.85.85,0,0,1,.09-.43.87.87,0,0,1,.54-.39.72.72,0,0,1,.28,0A.88.88,0,0,1,22.82,27.11Z" transform="translate(-1.4 -4.01)"/><path class="cls-2" d="M22.5,24.74" transform="translate(-1.4 -4.01)"/></svg>