<svg id="圖層_1" data-name="圖層 1" xmlns="http://www.w3.org/2000/svg" viewBox="0 0 28.92 28.92"><defs><style>.cls-1{fill:none;stroke:#231815;stroke-miterlimit:10;stroke-width:2px;}.cls-2{fill:#231815;}</style></defs><path class="cls-1" d="M31.21,15.85A12.64,12.64,0,0,1,31.3,18,13.46,13.46,0,1,1,24.18,5.6" transform="translate(-3.39 -3.02)"/><path class="cls-1" d="M25.51,16.76a7.89,7.89,0,0,1,.06,1.38,8.09,8.09,0,1,1-7.78-8.39,7.94,7.94,0,0,1,3.34.86" transform="translate(-3.39 -3.02)"/><path class="cls-1" d="M19.11,13.94" transform="translate(-3.39 -3.02)"/><path class="cls-1" d="M21.51,17.81a3.8,3.8,0,1,1-3.65-4.13,5,5,0,0,1,.57.06" transform="translate(-3.39 -3.02)"/><rect class="cls-2" x="17.02" y="12.92" width="11.09" height="1.55" rx="0.77" transform="translate(-7.04 13.69) rotate(-37.83)"/><path class="cls-2" d="M25.34,10.7a6.52,6.52,0,0,1,.42-1.51,7.36,7.36,0,0,1,3.7-3.7l0,0-.21,3.07c.4,0,.83.06,1.27.11.64.07,1.22.17,1.77.28l-1.43,1.21a12.85,12.85,0,0,1-1.72,1.36,1.47,1.47,0,0,1-.22.11,4.21,4.21,0,0,1-2.63.15Z" transform="translate(-3.39 -3.02)"/><circle class="cls-2" cx="20.86" cy="2.61" r="1"/><circle class="cls-2" cx="17.63" cy="7.54" r="1"/><circle class="cls-2" cx="14.79" cy="10.67" r="1"/><circle class="cls-2" cx="18.12" cy="14.74" r="1"/><circle class="cls-2" cx="22.08" cy="13.75" r="1"/><path class="cls-2" d="M32.21,16a1.05,1.05,0,0,1-1,.8,1.09,1.09,0,0,1-1-1.08,1,1,0,0,1,.59-1,1,1,0,0,1,1.15.22,1,1,0,0,1,.24.41A1.1,1.1,0,0,1,32.21,16Z" transform="translate(-3.39 -3.02)"/><path class="cls-2" d="M23.89,10" transform="translate(-3.39 -3.02)"/></svg>