<svg id="圖層_1" data-name="圖層 1" xmlns="http://www.w3.org/2000/svg" viewBox="0 0 28.74 27.93"><defs><style>.cls-1{fill:#fff;stroke-width:1.5px;}.cls-1,.cls-2,.cls-3{stroke:#231815;stroke-miterlimit:10;}.cls-2,.cls-3{fill:#231815;}.cls-2{stroke-width:0.2px;}.cls-3{stroke-width:0.25px;}</style></defs><circle class="cls-1" cx="5.76" cy="22.17" r="5.01"/><circle class="cls-1" cx="23.13" cy="19.03" r="4.85"/><path class="cls-2" d="M12.11,24.54h0c.48,0,.85-.6.84-1.3L12.64,8c0-.69-.41-1.24-.89-1.22h0c-.48,0-.85.6-.84,1.3l.31,15.21C11.23,24,11.63,24.56,12.11,24.54Z" transform="translate(-1.84 -4.24)"/><path class="cls-3" d="M30.14,5.09h0a1.24,1.24,0,0,0-1.4-.71L12,6.8c-.65.1-1.07.57-.95,1h0a1.24,1.24,0,0,0,1.4.71L29.19,6.13C29.84,6,30.26,5.57,30.14,5.09Z" transform="translate(-1.84 -4.24)"/><rect class="cls-3" x="26.7" y="0.78" width="1.61" height="16.01" rx="0.43"/></svg>