<svg id="圖層_1" data-name="圖層 1" xmlns="http://www.w3.org/2000/svg" viewBox="0 0 26.08 31.77"><defs><style>.cls-1,.cls-2{fill:#231815;stroke-miterlimit:10;}.cls-1{stroke:#231815;}.cls-2{stroke:#fff;stroke-width:2px;}</style></defs><path class="cls-1" d="M28,24.34c.77,2.06.91,1.87,1.16,2.87.2.75.68,2.65.14,3.75-.93,1.88-4.77,1.16-11.8,1.09C8.94,32,5.84,33,4.77,31c-.67-1.2-.1-2.72,1.09-5.79s2.66-6.86,5.73-7.78c1.49-.44,1.48.34,5,.14,2.8-.16,3.39-.71,5.32-.34a6.5,6.5,0,0,1,3.68,1.84,7.24,7.24,0,0,1,1.09,1.7A26,26,0,0,1,28,24.34Z" transform="translate(-3.99 -0.97)"/><circle class="cls-2" cx="13.04" cy="9.32" r="8.32"/><path class="cls-1" d="M36.34,13.63" transform="translate(-3.99 -0.97)"/></svg>