<svg id="圖層_1" data-name="圖層 1" xmlns="http://www.w3.org/2000/svg" viewBox="0 0 28.04 26.71"><defs><style>.cls-1{fill:none;stroke:#231815;stroke-miterlimit:10;stroke-width:1.5px;}</style></defs><path class="cls-1" d="M4.57,14.3c.55-.91,4.59-7.37,11.19-8.06a13.65,13.65,0,0,1,4.87.41,13.24,13.24,0,0,1,6,3.83,15.26,15.26,0,0,1,3,4.59" transform="translate(-3.48 -5.39)"/><circle class="cls-1" cx="0.85" cy="9.27" r="0.1"/><path class="cls-1" d="M30.13,15.53l-8.59,0c-.22,0-.39-.1-.39-.21h0c0-.11.18-.2.41-.2l8.58.06c.22,0,.4.09.4.2h0C30.53,15.44,30.35,15.53,30.13,15.53Z" transform="translate(-3.48 -5.39)"/><path class="cls-1" d="M30.77,6.55l-.06,8.59c0,.22-.09.4-.2.39h0c-.12,0-.21-.18-.21-.4l.06-8.59c0-.22.1-.4.21-.4h0C30.68,6.15,30.77,6.33,30.77,6.55Z" transform="translate(-3.48 -5.39)"/><path class="cls-1" d="M30.43,23.2c-.55.91-4.59,7.37-11.19,8.07a13.8,13.8,0,0,1-4.87-.42,13.32,13.32,0,0,1-6-3.82,15.39,15.39,0,0,1-3-4.59" transform="translate(-3.48 -5.39)"/><circle class="cls-1" cx="27.19" cy="17.44" r="0.1"/><path class="cls-1" d="M4.87,22l8.59.06c.22,0,.39.09.39.2h0c0,.12-.18.21-.41.21l-8.58-.06c-.22,0-.4-.1-.4-.21h0C4.47,22.06,4.65,22,4.87,22Z" transform="translate(-3.48 -5.39)"/><path class="cls-1" d="M4.23,31l.06-8.58c0-.22.09-.4.2-.4h0c.12,0,.21.19.21.41L4.64,31c0,.22-.1.4-.21.4h0C4.32,31.36,4.23,31.17,4.23,31Z" transform="translate(-3.48 -5.39)"/></svg>