<svg id="圖層_1" data-name="圖層 1" xmlns="http://www.w3.org/2000/svg" viewBox="0 0 34.21 33.64"><defs><style>.cls-1{fill:#fff;}.cls-1,.cls-2{stroke:#231815;stroke-miterlimit:10;stroke-width:1.5px;}.cls-2{fill:#231815;}</style></defs><circle class="cls-1" cx="17.04" cy="16.98" r="8.78"/><path class="cls-2" d="M17.33,6.53h0c-.29,0-.53-.43-.52-1l0-3c0-.55.25-1,.54-1h0c.29,0,.53.44.52,1l0,3C17.87,6.07,17.63,6.52,17.33,6.53Z" transform="translate(-0.32 -0.77)"/><path class="cls-2" d="M8.8,8.74h0c-.22.2-.69,0-1-.42L5.86,6c-.35-.43-.46-.94-.24-1.14h0c.23-.19.69,0,1,.43l1.9,2.32C8.91,8,9,8.55,8.8,8.74Z" transform="translate(-0.32 -0.77)"/><path class="cls-2" d="M28.92,31h0c-.24.16-.68-.08-1-.55l-1.61-2.53c-.3-.47-.34-1-.1-1.16h0c.24-.16.68.08,1,.55l1.6,2.53C29.12,30.28,29.17,30.8,28.92,31Z" transform="translate(-0.32 -0.77)"/><path class="cls-2" d="M17,33.67h0c-.29,0-.53-.44-.52-1l0-3c0-.56.24-1,.54-1h0c.29,0,.53.43.52,1l0,3C17.54,33.2,17.3,33.66,17,33.67Z" transform="translate(-0.32 -0.77)"/><path class="cls-2" d="M27.3,8.33h0c-.23-.18-.13-.68.22-1.1l1.93-2.3c.35-.43.83-.63,1.06-.45h0c.23.18.14.67-.22,1.1l-1.92,2.3C28,8.31,27.53,8.51,27.3,8.33Z" transform="translate(-0.32 -0.77)"/><path class="cls-2" d="M5.6,30.77h0c-.23-.18-.13-.67.23-1.1l1.92-2.3c.36-.42.83-.62,1.07-.44h0c.23.18.13.67-.23,1.09L6.67,30.33C6.31,30.75,5.84,31,5.6,30.77Z" transform="translate(-0.32 -0.77)"/><path class="cls-2" d="M28.78,18.58h0c0-.3.43-.53,1-.53l3,0c.56,0,1,.25,1,.54h0c0,.3-.44.53-1,.53l-3,0C29.24,19.11,28.78,18.87,28.78,18.58Z" transform="translate(-0.32 -0.77)"/><path class="cls-2" d="M1.07,18h0c0-.3.44-.53,1-.52l3,0c.55,0,1,.25,1,.55h0c0,.29-.43.53-1,.52l-3,0C1.54,18.57,1.08,18.32,1.07,18Z" transform="translate(-0.32 -0.77)"/></svg>