<svg id="圖層_1" data-name="圖層 1" xmlns="http://www.w3.org/2000/svg" viewBox="0 0 51.08 34.19"><defs><style>.cls-1{fill:#231815;}</style></defs><path class="cls-1" d="M52.13,6,50.94,9" transform="translate(-1.05 -0.54)"/><path class="cls-1" d="M12.18,21.19" transform="translate(-1.05 -0.54)"/><path class="cls-1" d="M10.43,29.85h0c.56.22,1.15-.3,1.32-1.16l1.13-5.58a1.75,1.75,0,0,0-.68-2h0c-.55-.22-1.15.29-1.32,1.16L9.75,27.88A1.76,1.76,0,0,0,10.43,29.85Z" transform="translate(-1.05 -0.54)"/><path class="cls-1" d="M10.11,29.33c.16.57.94.72,1.72.33l5.1-2.54a8.63,8.63,0,0,0,1-.54l.09-.07c.17-.14.39-.32.43-.52a.71.71,0,0,0-.35-.63h0c-.16-.57-.94-.72-1.72-.32l-5.1,2.54C10.45,28,9.94,28.76,10.11,29.33Z" transform="translate(-1.05 -0.54)"/><path class="cls-1" d="M17.85,26.43a1,1,0,0,0,.37-.78,1.06,1.06,0,0,0-.61-.88l-4.24-3.38c-1.11-.49-2-.29-2.23.13s.14.86.6,1.3L16,26.19A1.51,1.51,0,0,0,17.85,26.43Z" transform="translate(-1.05 -0.54)"/><path class="cls-1" d="M17.58,25.52,16.85,27a2,2,0,0,0,.47-.1,2.81,2.81,0,0,0,.47-.22,3.77,3.77,0,0,0,.39-.26,3.12,3.12,0,0,0,.39-.36l.36-.37.38-.42L19.5,25c.2-.27.29-.36.43-.55a5.17,5.17,0,0,0,.42-.6,8.29,8.29,0,0,1,.82-1L32,9.73c.76-.91,1.18-1.46,1.42-1.79a7.71,7.71,0,0,0,.7-1,2.89,2.89,0,0,0,.35-.89,2.45,2.45,0,0,0,0-1h0c-.47-.48-.79-.53-1-.49-.39.08-.4.52-1.17,1.47-.23.29-.26.28-.81.93-.27.32-.49.59-.63.77L20,20.86a16,16,0,0,1-1.57,2l-1,1c-.54.49-.84.65-.84.92S16.78,25.19,17.58,25.52Z" transform="translate(-1.05 -0.54)"/><path class="cls-1" d="M11.23,22.5h0c.31.54,1.92-.66,3.59-2.69l11-13.47a3.22,3.22,0,0,1,.68-1.85c.25-.31.45-.4.73-.73A4.25,4.25,0,0,0,28.12,2h0c-.31-.55-1.92.65-3.6,2.68L13.7,17.83c-.17.2-.41.49-.69.85-.61.77-.93,1.16-1.2,1.56-.51.77-1.09,1.65-.79,2.09A.52.52,0,0,0,11.23,22.5Z" transform="translate(-1.05 -0.54)"/><path class="cls-1" d="M29.56,12.52h0c.45-.39.28-1.13-.38-1.66L24.91,7.47a1.7,1.7,0,0,0-2-.24h0c-.44.39-.27,1.14.38,1.66l4.27,3.39A1.67,1.67,0,0,0,29.56,12.52Z" transform="translate(-1.05 -0.54)"/><path class="cls-1" d="M31.55,9.74h0c.45-.39.27-1.14-.4-1.67L26.82,4.62a1.49,1.49,0,0,0-1.09-.48,1.41,1.41,0,0,0-.74.24l-.29.41a.79.79,0,0,0-.13.36,1,1,0,0,0,.62.89l4.33,3.45A1.71,1.71,0,0,0,31.55,9.74Z" transform="translate(-1.05 -0.54)"/><path class="cls-1" d="M32.65,5.62a2.64,2.64,0,0,0,0-1.51,2.68,2.68,0,0,0-3.78-1.49,2.24,2.24,0,0,0-.5.37A11.05,11.05,0,0,0,27.09,4.3c-.17.23-.27.38-.39.36s-.15-.51-.47-.68-.51.05-.6-.06.07-.48,1.1-1.63a4.88,4.88,0,0,1,.47-.49,4.79,4.79,0,0,1,2-1.16A4.05,4.05,0,0,1,31.86,1a4.76,4.76,0,0,1,2.4,2.46,4.65,4.65,0,0,1,.37,2.22,3.3,3.3,0,0,1-.17.61c-.11.26-.18.42-.28.48C33.77,7,32.72,5.7,32.65,5.62Z" transform="translate(-1.05 -0.54)"/><path class="cls-1" d="M25.68,24.27" transform="translate(-1.05 -0.54)"/><path class="cls-1" d="M18,32.29l-15,0c-1.07,0-1.94-.29-1.94-.67h0C1,31.28,1.9,31,3,31l15,0c1.07,0,1.94.3,1.94.67h0C19.91,32,19.05,32.29,18,32.29Z" transform="translate(-1.05 -0.54)"/><path class="cls-1" d="M18,34.7l-15,0c-1.07,0-1.94-.3-1.94-.67h0c0-.38.85-.68,1.91-.68l15,0c1.07,0,1.94.3,1.94.68h0C19.91,34.39,19.05,34.69,18,34.7Z" transform="translate(-1.05 -0.54)"/></svg>