<svg id="圖層_1" data-name="圖層 1" xmlns="http://www.w3.org/2000/svg" viewBox="0 0 29.37 29.25"><defs><style>.cls-1{fill:#fff;}.cls-1,.cls-2{stroke:#231815;stroke-miterlimit:10;}.cls-2{fill:#231815;}</style></defs><path class="cls-1" d="M30.72,19.39C32,21,26.93,33.47,16.64,33.47c-7.92,0-13.79-7.32-14.09-14.08A14.26,14.26,0,0,1,6.66,9.15C10,5.85,15.39,4.29,16.77,5.8c.43.46.37,2.15.24,5.53,0,.31-.06,1.3-.11,2.57,0,0,0,.53-.06,1.32,0,.48,0,.64,0,.72s0,.23,0,.42,0,.31,0,.41c0,.34,0,.31,0,.58,0,.08,0,.23,0,.4a1.36,1.36,0,0,0,0,.21c0,.07,0,.07,0,.14s0,.14,0,.24a1.06,1.06,0,0,0,.06.19.58.58,0,0,0,.13.22.27.27,0,0,0,.13.08.55.55,0,0,0,.23.07h.46l1.3,0,3.39.08,5.08.14A11.62,11.62,0,0,1,30.72,19.39Z" transform="translate(-2.04 -4.72)"/><path class="cls-2" d="M30.5,15.66c-.35.66-1.23.51-4.58.47-4.14,0-4.89.17-5.53-.6-.48-.58-.47-1.87-.44-4.43C20,8,20,6.4,20.69,6c1-.68,2.8.51,4.47,1.63A14.3,14.3,0,0,1,27.8,10,12.27,12.27,0,0,1,29.31,12C30.07,13.32,30.94,14.82,30.5,15.66Z" transform="translate(-2.04 -4.72)"/></svg>