<svg id="圖層_1" data-name="圖層 1" xmlns="http://www.w3.org/2000/svg" viewBox="0 0 365.7 328.64"><defs><style>.cls-1,.cls-3{fill:#231815;}.cls-1,.cls-2{stroke:#231815;stroke-miterlimit:10;}.cls-2{fill:none;stroke-width:14px;}</style></defs><path class="cls-1" d="M239.61,30.08" transform="translate(-7.16 -9.22)"/><path class="cls-2" d="M365.41,159.07C356.35,65.13,261.75,55.64,261.75,55.64l-7-3.63a14.33,14.33,0,0,0-1.45-7.63c-4.57-8.76-19.74-12.15-37.66-7.93a23,23,0,0,0-45.85,1.31c-14.28-5.94-28.63-3.6-35.28,4.89a20.72,20.72,0,0,0-4.16,12.15A296.79,296.79,0,0,0,85.84,68.69c-11.94,4.92-20.31,8.5-30,16a105.31,105.31,0,0,0-22.74,24.8c-15.95,24.14-17.87,49-18.62,60.55-3.05,46.61,15.05,117,64.07,141.1,18.37,9,44.61,13.27,60,15.76a321,321,0,0,0,40.18,3.94,322.14,322.14,0,0,0,35.07-1.34,323.37,323.37,0,0,0,44.8-7.38C378.82,283.87,365.41,159.07,365.41,159.07Z" transform="translate(-7.16 -9.22)"/><path class="cls-1" d="M260.64,60.86,251,44.25a19.23,19.23,0,0,1-4.19,9.81c-3.39,4-8,6.55-12.9,9.06-5.61,2.87-7.71,3.22-8.64,5.5-1.23,3,.7,6.66,2.69,9.44a17.7,17.7,0,0,1,2.47,7.72,9.33,9.33,0,0,1-1,5.91,7.9,7.9,0,0,1-2.63,2.59,12.8,12.8,0,0,1-3.41,1.3,14,14,0,0,1-5.28,0c-5.59-.89-12.69-4.49-13.72-5,0,0-16.1-6.07-30.62,4-4.81,3.33-12.48,2.46-15.17-.93-2.34-3-1-8.81,1-12.18a50.59,50.59,0,0,1,4.91-6.69c1.38-1.53,2.31-2.35,2.34-3.69,0-2.26-2.51-4-3.32-4.55a15.18,15.18,0,0,0-6.9-2.24c-4.44-.63-11.74-1.67-16.63-5.56a17.09,17.09,0,0,1-4.56-5.69l-6.52,7.5a41,41,0,0,0,8.26,6.92c2.81,1.77,4.84,3.06,7.89,3.77,4.84,1.14,8-.16,8.55,1.08.43,1-1.65,2.36-4.08,5.3a30.75,30.75,0,0,0-4.64,7.76c-.24.91-2.79,11.33,4.48,19.83,7.84,9.15,19.66,7.39,20.28,7.29,2.73-1.6,13.75-7.91,21.77-9.67a19,19,0,0,1,4.58-.5c3.61.08,6.18,1.23,10,3,10.94,5.05,11.05,5.14,12.12,5.4a27.23,27.23,0,0,0,11.36.38,21.53,21.53,0,0,0,7.2-2.52,20.84,20.84,0,0,0,7.51-7.56,13.7,13.7,0,0,0,2.49-7.65c-.06-6.66-6-9.39-6.51-13.87C239.63,75.46,243.41,69.52,260.64,60.86Z" transform="translate(-7.16 -9.22)"/><path class="cls-1" d="M61.49,124.34c2.34-2.61,21.27-23.59,33.63-27.71,2.24-.75,7.25-2.42,11.07,0a6.4,6.4,0,0,1,2.87,3.77c.54,2.67-1.23,5.72-4.45,7.06a94.14,94.14,0,0,0-30.08,22.22c-4.43,4.24-9.67,5.17-12.12,3.2a6.31,6.31,0,0,1-2.09-4.23A6.73,6.73,0,0,1,61.49,124.34Z" transform="translate(-7.16 -9.22)"/><path class="cls-3" d="M260.09,61.25c3.22,0,3.23-5,0-5s-3.22,5,0,5Z" transform="translate(-7.16 -9.22)"/><path class="cls-3" d="M258.32,60.87c3.22,0,3.22-5,0-5s-3.22,5,0,5Z" transform="translate(-7.16 -9.22)"/><path class="cls-3" d="M260.33,56.82l-.05-.19a2.87,2.87,0,0,0-1.15-1.5,1.79,1.79,0,0,0-.93-.29,1.85,1.85,0,0,0-1,0l-.6.25a2.5,2.5,0,0,0-.9.9l-.25.6a2.5,2.5,0,0,0,0,1.33l0,.19A1.89,1.89,0,0,0,256,59a1.83,1.83,0,0,0,.7.65,1.85,1.85,0,0,0,.93.29,1.89,1.89,0,0,0,1,0l.59-.25a2.5,2.5,0,0,0,.9-.9l.25-.6a2.5,2.5,0,0,0,0-1.33Z" transform="translate(-7.16 -9.22)"/><path class="cls-1" d="M64.29,153.88c-.37,2.51-.63,4.32-1.94,6.21-.63.9-3.07,4.4-6.8,4.19-3.36-.2-5.3-3.26-5.61-3.76-1.62-2.55-1.31-5.19-1.08-7.25.21-1.8,1.2-8.3,6-10.37a7,7,0,0,1,4.85-.35A7.46,7.46,0,0,1,64,146.79C65,149.06,64.7,151.1,64.29,153.88Z" transform="translate(-7.16 -9.22)"/><path class="cls-1" d="M196.38,103.64" transform="translate(-7.16 -9.22)"/><path class="cls-2" d="M144.74,74.59" transform="translate(-7.16 -9.22)"/></svg>